<svg width="190" height="191" xmlns="http://www.w3.org/2000/svg" xmlns:xlink="http://www.w3.org/1999/xlink" overflow="hidden"><defs><clipPath id="clip0"><rect x="38" y="32" width="190" height="191"/></clipPath></defs><g clip-path="url(#clip0)" transform="translate(-38 -32)"><path d="M227.038 206.269C227.038 214.595 220.272 221.339 211.88 221.339L53.1578 221.339C44.804 221.339 38 214.595 38 206.269L38 48.0701C38 39.7439 44.804 33 53.1578 33L211.88 33C220.234 33 227.038 39.7439 227.038 48.0701L227.038 206.269Z" fill="#00C300" fill-rule="evenodd"/><path d="M116.39 80.2863C104.618 79.7543 92.8092 80.1343 81 80.0963 81.0755 111.788 81.0377 143.48 81.0377 175.172 92.8092 175.248 104.618 175.21 116.39 175.172 116.578 159.478 116.163 143.746 116.578 128.014 120.464 133.448 123.973 139.148 127.935 144.506 134.537 154.842 142.008 164.57 148.346 175.058 160.231 175.362 172.078 175.058 183.962 175.248 184.075 173.766 184.226 172.284 184.226 170.802 184.038 140.554 184.377 110.306 184.075 80.0583 172.342 79.9823 160.608 80.0963 148.874 80.0203 148.799 95.8283 148.95 111.636 148.761 127.406 137.858 111.826 127.558 95.7143 116.39 80.2863Z" fill="#FFFFFF" fill-rule="evenodd"/></g></svg>