<svg width="191" height="190" xmlns="http://www.w3.org/2000/svg" xmlns:xlink="http://www.w3.org/1999/xlink" overflow="hidden"><defs><clipPath id="clip0"><rect x="37" y="243" width="191" height="190"/></clipPath></defs><g clip-path="url(#clip0)" transform="translate(-37 -243)"><path d="M227.038 417.269C227.038 425.595 220.272 432.339 211.88 432.339L53.1578 432.339C44.804 432.339 38 425.595 38 417.269L38 259.07C38 250.744 44.804 244 53.1578 244L211.88 244C220.234 244 227.038 250.744 227.038 259.07L227.038 417.269Z" fill="#FFE600" fill-rule="evenodd"/><path d="M134.614 274C94.5209 274 62 299.664 62 331.347 62 351.712 75.4778 369.579 95.6945 379.762L88.842 405.312C88.577 406.069 88.8042 406.94 89.3721 407.508 89.7507 407.886 90.2807 408.114 90.8486 408.114 91.3029 408.114 91.7193 407.924 92.0979 407.621L121.514 387.749C125.792 388.354 130.146 388.695 134.576 388.695 174.668 388.695 207.189 363.031 207.189 331.347 207.227 299.664 174.706 274 134.614 274" fill="#381E1E" fill-rule="evenodd"/><path d="M87.4326 322.418 79.4128 322.418C78.3 322.418 77.3791 322.15 76.5733 321.653 75.7674 321.156 75.307 320.429 75.1151 319.512 75.0767 319.282 75.0384 318.976 75 318.709 75 317.562 75.4221 316.644 76.2663 315.994 77.1105 315.344 78.1465 315 79.4128 315L103.894 315C105.007 315 105.966 315.268 106.734 315.765 107.54 316.262 108.038 316.95 108.23 317.906 108.269 318.174 108.307 318.441 108.269 318.709 108.269 319.894 107.847 320.812 107.041 321.462 106.235 322.112 105.199 322.418 103.894 322.418L95.9128 322.418 95.9128 349.909C95.9128 351.209 95.5291 352.279 94.7616 353.082 93.9942 353.885 92.9581 354.268 91.6535 354.268 90.5791 354.268 89.6965 353.962 88.9291 353.388 88.1616 352.776 87.7012 352.012 87.5093 350.979 87.4326 350.597 87.4326 350.253 87.4326 349.871L87.4326 322.418Z" fill="#FFE600" fill-rule="evenodd"/><path d="M110.569 317.625C110.91 316.688 111.403 316.013 112.086 315.6 112.769 315.188 113.603 315 114.666 315L116.676 315C117.776 315 118.686 315.225 119.407 315.638 120.128 316.05 120.734 316.913 121.152 318.15L131.279 347.138C131.621 348.038 131.848 348.788 131.962 349.462 132.038 349.875 132.114 350.212 132.114 350.475 132.114 351.525 131.697 352.425 130.938 353.138 130.179 353.888 129.231 354.225 128.169 354.225 126.234 354.225 124.983 353.438 124.414 351.862L122.252 345.562 108.748 345.562 106.586 351.862C106.055 353.438 104.803 354.225 102.831 354.225 101.845 354.225 101.01 354 100.366 353.475 99.6828 352.987 99.2655 352.237 99.0759 351.337 99 351.075 99 350.775 99 350.475 99 350.062 99.0379 349.538 99.2276 348.938 99.3793 348.337 99.569 347.737 99.7966 347.175L110.569 317.625ZM115.614 324.337 115.5 324.337 110.569 339.562 120.355 339.562 115.614 324.337Z" fill="#FFE600" fill-rule="evenodd"/><path d="M133.037 319.247C133.037 317.98 133.409 316.937 134.151 316.155 134.894 315.373 135.897 315 137.16 315 138.2 315 139.091 315.298 139.797 315.857 140.503 316.416 140.986 317.198 141.171 318.167 141.246 318.539 141.283 318.875 141.246 319.247L141.246 346.071 154.951 346.071C156.066 346.071 156.994 346.294 157.737 346.816 158.48 347.3 158.963 348.008 159.111 348.902 159.186 349.125 159.223 349.424 159.223 349.684 159.223 350.839 158.814 351.733 157.997 352.329 157.18 352.963 156.177 353.261 154.951 353.261L137.829 353.261C136.566 353.261 135.526 353 134.746 352.478 133.966 351.957 133.446 351.137 133.186 349.945 133.074 349.461 133.037 348.902 133 348.269L133.037 319.247Z" fill="#FFE600" fill-rule="evenodd"/><path d="M160 319.275C160 318 160.383 316.95 161.148 316.163 161.914 315.375 162.947 315 164.248 315 165.32 315 166.2 315.3 166.965 315.862 167.731 316.425 168.19 317.212 168.381 318.188 168.458 318.562 168.496 318.9 168.458 319.275L168.496 331.837 181.777 316.875C182.389 316.237 182.886 315.788 183.384 315.45 183.881 315.15 184.456 315 185.144 315 186.063 315 186.905 315.263 187.67 315.75 188.436 316.237 188.895 316.913 189.086 317.775 189.086 317.812 189.125 317.925 189.163 318.112 189.163 318.225 189.163 318.375 189.201 318.45 189.201 319.05 189.048 319.575 188.819 320.025 188.551 320.513 188.206 320.962 187.823 321.413L179.136 330.712 189.393 346.65 189.699 347.138C190.388 348.225 190.809 349.013 190.923 349.538 190.923 349.575 190.962 349.688 191 349.8 191 349.95 191 350.025 191 350.062 191 351.525 190.579 352.612 189.737 353.25 188.895 353.888 187.862 354.225 186.675 354.225 185.795 354.225 185.106 354.075 184.57 353.775 184.035 353.438 183.46 352.875 182.925 351.975L173.165 336.6 168.535 341.325 168.573 349.913C168.573 351.188 168.19 352.237 167.425 353.025 166.659 353.812 165.626 354.188 164.325 354.188 163.253 354.188 162.335 353.888 161.607 353.325 160.88 352.725 160.383 351.975 160.191 350.962 160.115 350.587 160.115 350.25 160.115 349.875L160 319.275Z" fill="#FFE600" fill-rule="evenodd"/></g></svg>